<svg width="232" height="95" viewBox="0 0 232 95" fill="none" xmlns="http://www.w3.org/2000/svg">
<rect x="183" y="75" width="46" height="20" rx="4" fill="#3790D0"/>
<path d="M188.23 90V79.425H192.64C193.74 79.425 194.59 79.67 195.19 80.16C195.8 80.64 196.105 81.315 196.105 82.185C196.105 82.755 195.955 83.245 195.655 83.655C195.355 84.065 194.945 84.365 194.425 84.555C195.035 84.715 195.51 85.01 195.85 85.44C196.19 85.87 196.36 86.415 196.36 87.075C196.36 88.015 196.045 88.74 195.415 89.25C194.795 89.75 193.93 90 192.82 90H188.23ZM189.73 84.045H192.4C193.86 84.045 194.59 83.475 194.59 82.335C194.59 81.195 193.86 80.625 192.4 80.625H189.73V84.045ZM189.73 88.8H192.64C194.11 88.8 194.845 88.205 194.845 87.015C194.845 85.835 194.11 85.245 192.64 85.245H189.73V88.8ZM198.455 90V79.425H205.295V80.685H199.955V84H204.98V85.26H199.955V88.74H205.295V90H198.455ZM209.736 90V80.73H205.986V79.425H215.031V80.73H211.281V90H209.736ZM214.103 90L218.813 79.425H220.103L224.828 90H223.238L222.128 87.42H216.773L215.678 90H214.103ZM219.443 81.15L217.328 86.16H221.603L219.473 81.15H219.443Z" fill="#242424"/>
<path d="M23.04 61.6C19.2 61.6 15.58 60.94 12.18 59.62C8.82 58.3 6 56.46 3.72 54.1C3.2 53.62 2.94 53.04 2.94 52.36C2.94 51.52 3.3 50.78 4.02 50.14C4.54 49.62 5.12 49.36 5.76 49.36C6.6 49.36 7.46 49.78 8.34 50.62C10.14 52.38 12.3 53.74 14.82 54.7C17.38 55.62 20.12 56.08 23.04 56.08C26 56.08 28.28 55.56 29.88 54.52C31.52 53.48 32.34 52.02 32.34 50.14C32.34 48.3 31.5 46.82 29.82 45.7C28.14 44.54 25.28 43.52 21.24 42.64C15.28 41.36 10.96 39.68 8.28 37.6C5.6 35.48 4.26 32.76 4.26 29.44C4.26 27.28 4.94 25.36 6.3 23.68C7.7 22 9.64 20.7 12.12 19.78C14.64 18.86 17.54 18.4 20.82 18.4C24.5 18.4 27.8 19.02 30.72 20.26C33.68 21.5 35.86 23.22 37.26 25.42C37.66 26.06 37.86 26.68 37.86 27.28C37.86 28.16 37.42 28.9 36.54 29.5C36.02 29.82 35.5 29.98 34.98 29.98C34.5 29.98 34.02 29.86 33.54 29.62C33.06 29.38 32.66 29.06 32.34 28.66C31.18 27.14 29.58 25.98 27.54 25.18C25.54 24.34 23.3 23.92 20.82 23.92C17.7 23.92 15.3 24.4 13.62 25.36C11.98 26.28 11.16 27.64 11.16 29.44C11.16 31.12 11.96 32.5 13.56 33.58C15.16 34.62 17.98 35.6 22.02 36.52C28.14 37.96 32.54 39.74 35.22 41.86C37.9 43.98 39.24 46.74 39.24 50.14C39.24 52.42 38.56 54.44 37.2 56.2C35.88 57.92 34 59.26 31.56 60.22C29.12 61.14 26.28 61.6 23.04 61.6ZM59.8275 76C56.9075 76 54.2475 75.54 51.8475 74.62C49.4875 73.74 47.7075 72.52 46.5075 70.96C46.0675 70.32 45.8475 69.72 45.8475 69.16C45.8475 68.28 46.2675 67.5 47.1075 66.82C47.6275 66.46 48.1875 66.28 48.7875 66.28C49.7875 66.28 50.6875 66.74 51.4875 67.66C52.3675 68.62 53.5075 69.36 54.9075 69.88C56.3475 70.4 57.9275 70.66 59.6475 70.66C62.7275 70.66 65.1075 69.8 66.7875 68.08C68.4675 66.36 69.3075 63.92 69.3075 60.76V57.7C68.2675 58.86 66.9275 59.78 65.2875 60.46C63.6475 61.14 61.9675 61.48 60.2475 61.48C55.2875 61.48 51.4075 60.14 48.6075 57.46C45.8475 54.74 44.4675 50.96 44.4675 46.12V34C44.4675 33.16 44.7875 32.46 45.4275 31.9C46.0675 31.3 46.8875 31 47.8875 31C48.8075 31 49.5875 31.3 50.2275 31.9C50.8675 32.46 51.1875 33.16 51.1875 34V46.12C51.1875 49.32 51.9875 51.82 53.5875 53.62C55.1875 55.38 57.4075 56.26 60.2475 56.26C63.0075 56.26 65.1475 55.4 66.6675 53.68C68.2275 51.92 69.0075 49.46 69.0075 46.3V34.6C69.0075 33.48 69.3075 32.6 69.9075 31.96C70.5075 31.32 71.3475 31 72.4275 31C73.5075 31 74.3475 31.32 74.9475 31.96C75.5475 32.6 75.8475 33.48 75.8475 34.6V59.98C75.8475 64.94 74.4075 68.84 71.5275 71.68C68.6875 74.56 64.7875 76 59.8275 76ZM85.5844 61.6C84.5444 61.6 83.7244 61.32 83.1244 60.76C82.5244 60.2 82.2244 59.42 82.2244 58.42V34.18C82.2244 33.18 82.5044 32.4 83.0644 31.84C83.6644 31.28 84.4644 31 85.4644 31C86.5044 31 87.3044 31.28 87.8644 31.84C88.4644 32.4 88.7644 33.18 88.7644 34.18V36.52C91.7244 32.84 95.6844 31 100.644 31C104.444 31 107.424 32.16 109.584 34.48C111.784 36.8 112.884 40 112.884 44.08V58.42C112.884 59.42 112.564 60.2 111.924 60.76C111.324 61.32 110.504 61.6 109.464 61.6C108.424 61.6 107.604 61.32 107.004 60.76C106.444 60.2 106.164 59.42 106.164 58.42V44.08C106.164 41.6 105.564 39.7 104.364 38.38C103.164 37.06 101.464 36.4 99.2644 36.4C96.0644 36.4 93.5444 37.36 91.7044 39.28C89.8644 41.16 88.9444 43.72 88.9444 46.96V58.42C88.9444 59.38 88.6244 60.16 87.9844 60.76C87.3844 61.32 86.5844 61.6 85.5844 61.6ZM142.06 53.86C142.66 54.34 142.96 54.9 142.96 55.54C142.96 56.22 142.7 56.9 142.18 57.58C141.34 58.82 140.14 59.8 138.58 60.52C137.02 61.24 135.3 61.6 133.42 61.6C130.42 61.6 128.06 60.76 126.34 59.08C124.62 57.4 123.76 55.1 123.76 52.18V36.94H121.06C119.98 36.94 119.12 36.7 118.48 36.22C117.88 35.74 117.58 35.1 117.58 34.3C117.58 33.46 117.88 32.8 118.48 32.32C119.12 31.84 119.98 31.6 121.06 31.6H123.76V22.12C123.76 21.12 124.06 20.34 124.66 19.78C125.26 19.22 126.08 18.94 127.12 18.94C128.16 18.94 128.98 19.22 129.58 19.78C130.18 20.34 130.48 21.12 130.48 22.12V31.6H137.02C138.06 31.6 138.88 31.84 139.48 32.32C140.12 32.8 140.44 33.46 140.44 34.3C140.44 35.1 140.14 35.74 139.54 36.22C138.94 36.7 138.1 36.94 137.02 36.94H130.48V52.72C130.48 53.8 130.78 54.66 131.38 55.3C131.98 55.9 132.82 56.2 133.9 56.2C135.38 56.2 136.7 55.62 137.86 54.46C138.78 53.62 139.62 53.2 140.38 53.2C141.02 53.2 141.58 53.42 142.06 53.86ZM151.327 61.6C150.287 61.6 149.467 61.32 148.867 60.76C148.267 60.2 147.967 59.42 147.967 58.42V18.64C147.967 17.64 148.267 16.86 148.867 16.3C149.467 15.74 150.287 15.46 151.327 15.46C152.367 15.46 153.187 15.74 153.787 16.3C154.387 16.86 154.687 17.64 154.687 18.64V36.52C157.607 32.84 161.507 31 166.387 31C170.187 31 173.167 32.16 175.327 34.48C177.527 36.8 178.627 40 178.627 44.08V58.42C178.627 59.42 178.307 60.2 177.667 60.76C177.067 61.32 176.247 61.6 175.207 61.6C174.167 61.6 173.347 61.32 172.747 60.76C172.187 60.2 171.907 59.42 171.907 58.42V44.08C171.907 41.6 171.307 39.7 170.107 38.38C168.907 37.06 167.207 36.4 165.007 36.4C161.807 36.4 159.287 37.36 157.447 39.28C155.607 41.16 154.687 43.72 154.687 46.96V58.42C154.687 59.38 154.367 60.16 153.727 60.76C153.127 61.32 152.327 61.6 151.327 61.6ZM189.202 26.38C187.922 26.38 186.862 26.02 186.022 25.3C185.222 24.54 184.822 23.58 184.822 22.42C184.822 21.26 185.222 20.32 186.022 19.6C186.862 18.84 187.922 18.46 189.202 18.46C190.482 18.46 191.542 18.84 192.382 19.6C193.222 20.32 193.642 21.26 193.642 22.42C193.642 23.58 193.222 24.54 192.382 25.3C191.542 26.02 190.482 26.38 189.202 26.38ZM189.202 61.6C188.162 61.6 187.342 61.32 186.742 60.76C186.182 60.2 185.902 59.42 185.902 58.42V34.18C185.902 33.18 186.182 32.4 186.742 31.84C187.342 31.28 188.162 31 189.202 31C190.242 31 191.062 31.28 191.662 31.84C192.302 32.4 192.622 33.18 192.622 34.18V58.42C192.622 59.42 192.302 60.2 191.662 60.76C191.062 61.32 190.242 61.6 189.202 61.6ZM211.755 61.6C207.955 61.6 204.915 60.7 202.635 58.9C200.355 57.1 199.215 54.7 199.215 51.7C199.215 48.74 200.415 46.38 202.815 44.62C205.255 42.86 208.535 41.98 212.655 41.98C216.655 41.98 219.775 42.9 222.015 44.74V42.46C222.015 40.46 221.375 38.94 220.095 37.9C218.855 36.82 217.015 36.28 214.575 36.28C211.135 36.28 208.175 37.04 205.695 38.56C204.855 39.04 204.095 39.28 203.415 39.28C202.695 39.28 202.035 38.96 201.435 38.32C201.035 37.88 200.835 37.36 200.835 36.76C200.835 35.8 201.255 35.04 202.095 34.48C203.535 33.4 205.355 32.56 207.555 31.96C209.755 31.32 212.055 31 214.455 31C218.975 31 222.515 32.02 225.075 34.06C227.635 36.1 228.915 38.92 228.915 42.52V58.6C228.915 59.52 228.615 60.26 228.015 60.82C227.415 61.34 226.595 61.6 225.555 61.6C224.515 61.6 223.695 61.34 223.095 60.82C222.535 60.3 222.255 59.58 222.255 58.66V57.52C219.895 60.24 216.395 61.6 211.755 61.6ZM213.195 56.68C215.915 56.68 218.075 56.24 219.675 55.36C221.275 54.44 222.075 53.2 222.075 51.64C222.075 50.12 221.295 48.92 219.735 48.04C218.175 47.16 216.035 46.72 213.315 46.72C210.955 46.72 209.115 47.16 207.795 48.04C206.515 48.92 205.875 50.14 205.875 51.7C205.875 53.3 206.495 54.54 207.735 55.42C209.015 56.26 210.835 56.68 213.195 56.68Z" fill="#ECECEC"/>
</svg>
